<svg xmlns="http://www.w3.org/2000/svg" fill="#2ecc70" viewBox="0 0 214.311 214.311" style="enable-background:new 0 0 214.311 214.311" xml:space="preserve"><path d="M134.455 0H79.857C56.236 0 37.018 19.228 37.018 42.862v103.259c0 37.599 30.594 68.19 68.197 68.19h3.881c37.603 0 68.197-30.59 68.197-68.19V42.862C177.294 19.228 158.076 0 134.455 0zM44.811 42.862c0-19.338 15.721-35.069 35.046-35.069h54.597c19.325 0 35.046 15.731 35.046 35.069v35.069H44.811V42.862zm124.69 103.259c0 33.303-27.097 60.397-60.404 60.397h-3.881c-33.307 0-60.404-27.093-60.404-60.397V85.724h124.689v60.397z"/><path d="M107.156 23.379a3.896 3.896 0 0 0-3.897 3.897v35.286a3.896 3.896 0 0 0 3.897 3.897 3.896 3.896 0 0 0 3.897-3.897V27.276a3.896 3.896 0 0 0-3.897-3.897z"/></svg>